# xmcd
#
# Track frame offsets:
#	150
#	13785
#	27722
#	42935
#	56707
#	70022
#	83897
#	96552
#	110967
#	124187
#	138672
#	155382
#	168690
#	182605
#	193092
#	209655
#	223695
#	237982
#	251655
#	265742
#
# Disc length: 3731
#
# Revision: 1
# Processed by: cddbd v1.5.1PL0 Copyright (c) Steve Scherf et al.
# Submitted via: audiograbber 1.83.01
# Normalized: r0:DSETVAR1
#
DISCID=3b0e9114
DTITLE=Various Artist - Das Beste 2000 - Volkmusik - CD2
DYEAR=2000
DGENRE=Voksmusik
TTITLE0=Dolomitensextett Lienz - Die Hände zum Himmel
TTITLE1=Astrid Harzbecker - Wie eine schöne Sinfonie
TTITLE2=Nockalm Quintett - Vom Winde verweht
TTITLE3=Dirk Schiefen and Das Filmorchester Babelsberg - Heimat Deine Sterne
TTITLE4=Judith and Mel - Das Glück zu zweit
TTITLE5=Alpin AG - Auf'm Gletscher schmilzt das Eis
TTITLE6=Patrizia Di Bari - Gino sagte Va Bene
TTITLE7=Die Zillertaler - Mambo Alpin
TTITLE8=Vreni and Rudi - Das ist Musik für Dich
TTITLE9=Martin Lackner - Einmal irgendwann
TTITLE10=Die fidelen Mölltaler - Liebe ist mehr als ein Wort
TTITLE11=Eva-Maria - Die Nacht des Wiener Walzers
TTITLE12=Turracher - Edelweissman
TTITLE13=Florian Silbereisen - Aber i find's guat
TTITLE14=Kurt Elsasser and Verronika - Sag warum?
TTITLE15=Die jungen Zillertaler - Stacheldraht
TTITLE16=Kathreiner - Dir könnt ich treu sein
TTITLE17=Die Vintschger - Weisse Pferde am Horizont
TTITLE18=Oswald Sattler - Madre De Dio
TTITLE19=Hermann Wolfgang - Samma a scho grau
EXTD=
EXTT0=
EXTT1=
EXTT2=
EXTT3=
EXTT4=
EXTT5=
EXTT6=
EXTT7=
EXTT8=
EXTT9=
EXTT10=
EXTT11=
EXTT12=
EXTT13=
EXTT14=
EXTT15=
EXTT16=
EXTT17=
EXTT18=
EXTT19=
PLAYORDER=
